#!OML:ASF I:\Actors\actors\Patient Classification 2\Patient 1\Session 1\actor1.ASF
:FULLY-SPECIFIED
:DEGREES
101
root -0.760229 18.7121 5.60079 3.62497 -2.96791 -3.05367
lowerback -0.320949 1.35548 -0.404675
upperback -1.82218 1.8004 -0.347132
thorax -1.6873 0.903017 -0.149754
lowerneck -7.05892 -2.94369 -2.34556
upperneck 15.8001 -4.98618 7.79301
head 6.20088 -1.98181 2.486
rclavicle -1.13377e-014 4.77083e-015
rhumerus -50.3788 4.04541 -89.0749
rradius 41.952
rwrist 15.2624
rhand -6.74766 -33.0537
rfingers 7.12502
rthumb 19.1135 -62.1345
lclavicle -1.13377e-014 4.77083e-015
lhumerus -24.1984 4.65728 75.1955
lradius 81.0954
lwrist 75.6421
lhand -18.4779 -14.709
lfingers 7.12502
lthumb 7.80905 15.1268
rfemur 0 0 0
rtibia 0
rfoot 0 0
rtoes 0
lfemur -5.91375 -8.43777 -10.9973
ltibia 21.4829
lfoot -25.4064 18.6648
ltoes -54.7416
102
root -0.76111 18.7132 5.59582 3.63306 -2.96471 -3.12329
lowerback -0.140453 1.37284 -0.454477
upperback -1.86712 1.82115 -0.387666
thorax -1.83502 0.913885 -0.169271
lowerneck -6.75295 -3.02158 -2.45015
upperneck 15.2636 -5.09521 8.12824
head 5.99563 -2.03661 2.60349
rclavicle -3.13063e-014 1.43125e-014
rhumerus -50.6179 3.85188 -88.8334
rradius 41.9056
rwrist 15.3946
rhand -6.71994 -33.1664
rfingers 7.12502
rthumb 19.1402 -62.2446
lclavicle -3.13063e-014 1.43125e-014
lhumerus -22.685 5.61599 74.8469
lradius 83.6284
lwrist 80.0296
lhand -19.2264 -14.889
lfingers 7.12502
lthumb 7.08665 14.9724
rfemur 0 0 0
rtibia 0
rfoot 0 0
rtoes 0
lfemur -5.94825 -8.41763 -10.9094
ltibia 21.511
lfoot -25.3715 18.6207
ltoes -54.6623
103
root -0.762114 18.714 5.59104 3.62615 -2.9765 -3.15165
lowerback 0.0388051 1.37495 -0.556041
upperback -1.90503 1.82054 -0.435317
thorax -1.97628 0.914892 -0.166764
lowerneck -6.47609 -3.10441 -2.49571
upperneck 14.8225 -5.20884 8.37165
head 5.82326 -2.09514 2.68176
rclavicle 4.01685e-015 7.95139e-016
rhumerus -50.8451 3.76833 -88.6444
rradius 41.9092
rwrist 15.4171
rhand -6.65788 -33.1707
rfingers 7.12502
rthumb 19.1998 -62.2429
lclavicle 4.01685e-015 7.95139e-016
lhumerus -21.227 6.54156 74.6187
lradius 86.2131
lwrist 83.9396
lhand -20.1682 -15.0874
lfingers 7.12502
lthumb 6.1774 14.8026
rfemur 0 0 0
rtibia 0
rfoot 0 0
rtoes 0
lfemur -5.96743 -8.28334 -10.8631
ltibia 21.5307
lfoot -25.235 18.5372
ltoes -54.628
104
root -0.762954 18.7145 5.58513 3.62653 -2.99041 -3.15884
lowerback 0.254504 1.37801 -0.678257
upperback -1.95656 1.81934 -0.509475
thorax -2.15188 0.915875 -0.181098
lowerneck -6.23803 -3.19222 -2.62694
upperneck 14.3987 -5.3473 8.80207
head 5.67258 -2.15731 2.83142
rclavicle 9.57117e-015 -1.59028e-014
rhumerus -51.0466 3.63477 -88.47
rradius 41.9013
rwrist 15.4745
rhand -6.71758 -32.8608
rfingers 7.12502
rthumb 19.1424 -61.9388
lclavicle 9.57117e-015 -1.59028e-014
lhumerus -19.8321 7.25724 74.4874
lradius 88.8362
lwrist 87.5284
lhand -21.1737 -15.6109
lfingers 7.12502
lthumb 5.20661 14.3051
rfemur 0 0 0
rtibia 0
rfoot 0 0
rtoes 0
lfemur -5.99831 -8.16282 -10.8385
ltibia 21.5364
lfoot -25.1191 18.4847
ltoes -54.6753
105
root -0.762742 18.7144 5.57857 3.62131 -3.0067 -3.12837
lowerback 0.502077 1.375 -0.827795
upperback -2.01237 1.8078 -0.603096
thorax -2.35016 0.912184 -0.200842
lowerneck -5.94562 -3.28487 -2.92831
upperneck 13.9016 -5.50903 9.53182
head 5.50495 -2.22511 3.10298
rclavicle 2.32407e-014 1.59028e-015
rhumerus -51.2944 3.56292 -88.3503
rradius 41.9596
rwrist 15.5167
rhand -6.82221 -32.6303
rfingers 7.12502
rthumb 19.0418 -61.7182
lclavicle 2.32407e-014 1.59028e-015
lhumerus -18.4748 7.83269 74.4632
lradius 91.357
lwrist 90.2119
lhand -22.0959 -16.6322
lfingers 7.12502
lthumb 4.31617 13.3039
rfemur 0 0 0
rtibia 0
rfoot 0 0
rtoes 0
lfemur -6.01382 -8.20802 -10.8728
ltibia 21.5378
lfoot -25.1647 18.5161
ltoes -54.6318
106
root -0.762168 18.7146 5.57261 3.6189 -3.02795 -3.09666
lowerback 0.754463 1.36617 -0.997662
upperback -2.07464 1.78702 -0.678235
thorax -2.55912 0.904729 -0.190265
lowerneck -5.68905 -3.39247 -3.18541
upperneck 13.5369 -5.68399 10.1227
head 5.38265 -2.3036 3.32246
rclavicle -8.81952e-015 -4.77083e-015
rhumerus -51.6213 3.54413 -88.2382
rradius 42.1317
rwrist 15.5585
rhand -6.84407 -32.6553
rfingers 7.12502
rthumb 19.0208 -61.7452
lclavicle -8.81952e-015 -4.77083e-015
lhumerus -17.1422 8.41386 74.6113
lradius 93.7892
lwrist 92.013
lhand -22.8973 -17.6335
lfingers 7.12502
lthumb 3.5423 12.3168
rfemur 0 0 0
rtibia 0
rfoot 0 0
rtoes 0
lfemur -6.02515 -8.25215 -10.9121
ltibia 21.5402
lfoot -25.2246 18.5721
ltoes -54.6099
107
root -0.761036 18.7159 5.56709 3.61892 -3.05057 -3.11297
lowerback 0.995022 1.35139 -1.13493
upperback -2.11405 1.75865 -0.732529
thorax -2.73761 0.893205 -0.175472
lowerneck -5.55255 -3.48745 -3.29612
upperneck 13.2905 -5.83092 10.4705
head 5.30657 -2.37062 3.44146
rclavicle -1.43731e-014 7.15625e-015
rhumerus -51.8687 3.54272 -88.1341
rradius 42.3029
rwrist 15.5888
rhand -6.85356 -32.7313
rfingers 7.12502
rthumb 19.0117 -61.8222
lclavicle -1.43731e-014 7.15625e-015
lhumerus -15.8445 8.91712 74.8843
lradius 96.1926
lwrist 93.3966
lhand -23.4721 -18.1464
lfingers 7.12502
lthumb 2.98719 11.8124
rfemur 0 0 0
rtibia 0
rfoot 0 0
rtoes 0
lfemur -6.04168 -8.19015 -10.8928
ltibia 21.5505
lfoot -25.1976 18.5613
ltoes -54.6744
108
root -0.758141 18.7168 5.56305 3.62308 -3.08319 -3.12808
lowerback 1.18215 1.3389 -1.23684
upperback -2.12689 1.73383 -0.816013
thorax -2.85671 0.882298 -0.208475
lowerneck -5.43544 -3.57789 -3.25428
upperneck 13.04 -5.97142 10.715
head 5.22592 -2.43362 3.50258
rclavicle 4.89638e-015 -5.56597e-015
rhumerus -52.0429 3.64036 -88.1464
rradius 42.4799
rwrist 15.4131
rhand -6.91158 -32.8901
rfingers 7.12502
rthumb 18.9559 -61.9864
lclavicle 4.89638e-015 -5.56597e-015
lhumerus -14.519 9.33289 75.2273
lradius 98.5093
lwrist 94.4683
lhand -24.0671 -18.4814
lfingers 7.12502
lthumb 2.41254 11.4847
rfemur 0 0 0
rtibia 0
rfoot 0 0
rtoes 0
lfemur -6.06403 -8.13616 -10.8839
ltibia 21.5786
lfoot -25.1767 18.5162
ltoes -54.647
